<?xml version="1.0" encoding="UTF-8" standalone="no"?>
<!-- Created with Inkscape (http://www.inkscape.org/) -->

<svg
   xmlns:dc="http://purl.org/dc/elements/1.1/"
   xmlns:cc="http://creativecommons.org/ns#"
   xmlns:rdf="http://www.w3.org/1999/02/22-rdf-syntax-ns#"
   xmlns:svg="http://www.w3.org/2000/svg"
   xmlns="http://www.w3.org/2000/svg"
   xmlns:sodipodi="http://sodipodi.sourceforge.net/DTD/sodipodi-0.dtd"
   xmlns:inkscape="http://www.inkscape.org/namespaces/inkscape"
   width="53.211788mm"
   height="38.669342mm"
   viewBox="0 0 53.211788 38.669342"
   version="1.1"
   id="svg8"
   inkscape:version="0.92.3 (2405546, 2018-03-11)"
   sodipodi:docname="lucky.svg">
  <defs
     id="defs2" />
  <sodipodi:namedview
     id="base"
     pagecolor="#ffffff"
     bordercolor="#666666"
     borderopacity="1.0"
     inkscape:pageopacity="0.0"
     inkscape:pageshadow="2"
     inkscape:zoom="2.8"
     inkscape:cx="96.243259"
     inkscape:cy="71.12564"
     inkscape:document-units="mm"
     inkscape:current-layer="layer1"
     showgrid="false"
     fit-margin-top="0"
     fit-margin-left="0"
     fit-margin-right="0"
     fit-margin-bottom="0"
     inkscape:window-width="1920"
     inkscape:window-height="1019"
     inkscape:window-x="0"
     inkscape:window-y="0"
     inkscape:window-maximized="1" />
  <metadata
     id="metadata5">
    <rdf:RDF>
      <cc:Work
         rdf:about="">
        <dc:format>image/svg+xml</dc:format>
        <dc:type
           rdf:resource="http://purl.org/dc/dcmitype/StillImage" />
        <dc:title></dc:title>
      </cc:Work>
    </rdf:RDF>
  </metadata>
  <g
     inkscape:label="Calque 1"
     inkscape:groupmode="layer"
     id="layer1"
     transform="translate(1.86469,-148.81835)">
    <g
       id="g15543"
       transform="translate(-145.52083,-17.386905)">
      <path
         style="fill:#f8f5d1;stroke-width:0.35277778"
         d="m 172.74131,204.49109 c -0.36354,-0.58823 0.4541,-1.26278 0.94076,-0.77612 0.40708,0.40708 0.1523,1.15963 -0.39259,1.15963 -0.17113,0 -0.4178,-0.17258 -0.54817,-0.38351 z m 2.66455,-4.37972 c -0.46112,-1.21286 0.10595,-2.29232 1.20422,-2.29232 1.08966,0 1.69602,0.78236 1.55558,2.00714 -0.0954,0.83202 -0.2981,1.00925 -1.26044,1.10203 -0.9624,0.0928 -1.20344,-0.0385 -1.49936,-0.81685 z m -15.52194,-0.98333 c -0.76261,-0.38435 -0.89624,-0.71705 -0.98758,-2.45882 -0.10202,-1.94522 -0.0657,-2.03868 1.05833,-2.72399 1.59369,-0.97165 3.14071,-0.91808 4.13782,0.14329 0.70558,0.75106 0.77354,1.07541 0.55629,2.655 -0.13611,0.98968 -0.48148,2.03341 -0.76748,2.31941 -0.6346,0.6346 -2.79753,0.66983 -3.99738,0.0651 z m 16.84629,-3.76329 c -2.02864,-0.39365 -2.73518,-1.23184 -2.73518,-3.24483 0,-1.24999 0.19335,-1.90255 0.71964,-2.42885 0.83417,-0.83417 2.16142,-1.39702 3.29427,-1.39702 0.91393,0 2.68887,1.69634 2.68887,2.5698 0,1.37854 -1.79858,4.92114 -2.43593,4.79796 -0.11544,-0.0223 -0.8047,-0.15599 -1.53167,-0.29706 z m 9.24719,-4.36533 c -3.00458,-1.38571 -4.22732,-3.1143 -4.20954,-5.95105 0.0289,-4.60106 5.05272,-7.4944 9.32975,-5.37316 1.52702,0.75734 2.61488,2.50708 2.88945,4.64744 0.32139,2.5053 -1.47965,3.37777 -2.72747,1.32125 l -0.54099,-0.8916 -0.79735,1.07847 -0.79735,1.07848 0.88738,1.05459 c 0.67308,0.79991 0.81818,1.24402 0.60084,1.83893 -0.54351,1.4877 -2.76178,2.06044 -4.63472,1.19665 z M 161.74713,189.639 c -1.99282,-1.0203 -2.74381,-2.55978 -2.21205,-4.53459 0.21233,-0.78853 0.68487,-1.73251 1.0501,-2.09773 0.64947,-0.64948 2.77135,-1.40953 3.94598,-1.41344 0.99776,-0.003 2.72629,1.74027 3.15986,3.18742 0.77978,2.60268 -1.17904,5.63964 -3.6282,5.62516 -0.45513,-0.003 -1.49719,-0.34776 -2.31569,-0.76682 z m -12.24148,-4.00292 c -1.58756,-0.82789 -3.02318,-2.51548 -3.06303,-3.60063 -0.0801,-2.1813 0.13863,-3.49618 0.79589,-4.78452 0.85636,-1.67862 0.75784,-2.00087 -0.76358,-2.49759 -1.33502,-0.43586 -2.81879,-2.32236 -2.81879,-3.58388 0,-0.43585 0.46057,-1.2855 1.02348,-1.88811 1.34812,-1.44316 3.0365,-1.4928 4.64817,-0.13667 1.0501,0.88361 1.34464,0.95042 3.74777,0.85013 2.58789,-0.108 2.61727,-0.0991 3.79367,1.14824 1.84784,1.95928 1.93359,3.78616 0.49039,10.44822 -0.47175,2.17765 -1.06146,2.96935 -2.86046,3.84023 -1.81477,0.87851 -3.56377,0.95017 -4.99351,0.20458 z m 26.66933,-4.83107 c -1.3284,-0.34605 -2.34001,-2.15736 -1.98805,-3.55967 0.1878,-0.74826 1.50318,-2.22087 2.53177,-2.83439 1.13814,-0.67887 4.52858,2.4194 4.13745,3.7809 -0.64146,2.2329 -2.39125,3.20968 -4.68117,2.61316 z m -6.22976,-5.97238 c -0.70695,-0.84017 -0.88121,-1.33856 -0.70855,-2.02649 0.34556,-1.37682 0.84603,-1.7982 2.13572,-1.7982 1.3376,0 2.27321,1.01628 2.26446,2.45974 -0.007,1.08913 -0.29165,1.54579 -1.29432,2.07355 -1.12496,0.59213 -1.3617,0.52216 -2.39731,-0.7086 z m 22.06708,-1.57921 c -0.40214,-0.51124 -0.73116,-1.13591 -0.73116,-1.38815 0,-2.58212 3.08453,-3.66329 4.8507,-1.70023 1.03363,1.14886 1.00249,1.51545 -0.2447,2.88094 -1.33323,1.4597 -2.8269,1.53967 -3.87484,0.20744 z m -13.82455,-0.30421 c -1.71116,-0.89136 -2.30981,-2.12182 -1.87506,-3.85399 0.12138,-0.48361 -0.0149,-0.96149 -0.3547,-1.24346 -0.30352,-0.2519 -0.55185,-0.67668 -0.55185,-0.94397 0,-0.58432 1.29554,-0.6563 1.48677,-0.0826 0.0956,0.2869 0.3333,0.29863 0.82315,0.0406 2.42036,-1.27486 6.86231,-0.58718 6.86231,1.06238 0,1.43767 -0.64655,3.0801 -1.77176,4.50079 -1.32061,1.66741 -2.22175,1.7689 -4.61886,0.52023 z"
         id="path15549"
         inkscape:connector-curvature="0" />
      <path
         style="fill:#f2e5a0;stroke-width:0.35277778"
         d="m 176.23017,199.73561 c -0.2546,-0.66348 0.36969,-1.387 0.90912,-1.05362 0.58149,0.35938 0.45982,1.6065 -0.15672,1.6065 -0.29713,0 -0.63571,-0.2488 -0.7524,-0.55288 z m -16.09768,-1.2992 c -0.32552,-0.24254 -0.6911,-0.94639 -0.81241,-1.56412 -0.17838,-0.90838 -0.0474,-1.29626 0.68477,-2.02847 2.33957,-2.33957 5.47512,0.51991 3.56323,3.24951 -0.62286,0.88925 -2.45677,1.07238 -3.43559,0.34308 z m 15.53824,-4.52618 c -0.44077,-0.25672 -0.61737,-0.80607 -0.61737,-1.92049 0,-1.38519 0.12183,-1.62391 1.08221,-2.12054 2.15119,-1.11242 3.66256,0.10529 2.14096,1.72497 -0.5103,0.54319 -0.6244,0.9209 -0.39011,1.29144 0.18213,0.28804 0.33357,0.72215 0.33654,0.96469 0.006,0.52962 -1.67792,0.56918 -2.55223,0.0599 z m 9.63367,-4.27705 c -1.9157,-1.30356 -2.66631,-2.57436 -2.66631,-4.51413 0,-2.7254 2.00195,-4.87346 4.84013,-5.19336 2.71624,-0.30616 5.27381,1.62126 5.34877,4.03091 0.0602,1.93526 -0.91247,1.81788 -1.32981,-0.16047 -0.35083,-1.66308 -1.27437,-2.08492 -1.27437,-0.58208 0,0.57788 -0.4568,1.37402 -1.23472,2.15194 -0.6791,0.6791 -1.23472,1.36679 -1.23472,1.5282 0,0.16141 0.48505,0.63887 1.07789,1.06101 0.7328,0.5218 1.0434,1.0095 0.97014,1.52333 -0.1647,1.15514 -2.889,1.24883 -4.497,0.15465 z m -23.61067,-1.17824 c -0.5866,-0.49359 -1.16258,-1.20003 -1.27997,-1.56987 -0.26797,-0.8443 0.65696,-2.67949 1.60661,-3.18772 0.66275,-0.3547 0.68304,-0.32825 0.26351,0.34354 -0.54897,0.87902 -0.0242,1.9601 0.95143,1.9601 0.97203,0 1.50068,-1.08062 0.95561,-1.95341 -0.46263,-0.7408 -0.30888,-1.39798 0.32707,-1.39798 0.1975,0 0.82313,0.46404 1.39029,1.0312 0.76345,0.76345 1.0312,1.36588 1.0312,2.32019 0,0.95431 -0.26775,1.55675 -1.0312,2.32019 -1.30835,1.30835 -2.76373,1.35454 -4.21455,0.13376 z m -13.1402,-4.7055 c -1.15787,-1.15787 -1.36961,-1.59958 -1.36961,-2.8571 0,-1.63776 0.74397,-3.49334 1.77455,-4.426 1.84154,-1.66657 6.58092,-0.59413 7.36935,1.66755 0.84582,2.42632 0.23722,4.80353 -1.59971,6.24845 -0.69111,0.54363 -1.44348,0.73671 -2.87077,0.73671 -1.77643,0 -2.04592,-0.11172 -3.30381,-1.36961 z m 6.5241,-3.29808 c 0.29671,-0.47117 0.24787,-0.74748 -0.21374,-1.20909 -0.49381,-0.49381 -0.75472,-0.52711 -1.49333,-0.19057 -1.04762,0.47733 -1.13939,1.03952 -0.27761,1.70076 0.77544,0.59499 1.4885,0.48681 1.98468,-0.3011 z m 22.79796,-0.80516 c 0,-0.0996 0.19139,-0.48764 0.42531,-0.86221 0.35029,-0.56091 0.30954,-0.80896 -0.23107,-1.40632 -0.79447,-0.87789 -1.1753,-0.90458 -2.01855,-0.14145 -0.35483,0.32112 -0.64514,0.41201 -0.64514,0.202 0,-0.55981 1.80773,-1.88786 2.4085,-1.7694 0.28344,0.0559 0.83342,0.52807 1.22219,1.04929 0.62242,0.83446 0.65338,1.07678 0.25917,2.02847 -0.24622,0.59444 -0.66654,1.0808 -0.93405,1.0808 -0.2675,0 -0.48636,-0.0815 -0.48636,-0.18118 z m -7.33778,-5.18104 c -1.19743,-1.19743 0.21074,-3.19235 1.69333,-2.39889 0.90985,0.48693 0.92389,1.97499 0.0232,2.45703 -0.87993,0.47093 -1.19824,0.46014 -1.71652,-0.0581 z m -25.27417,-1.41905 c -0.75677,-1.08045 -0.68763,-2.60526 0.15639,-3.44929 0.98361,-0.9836 1.99583,-0.88066 3.20214,0.32565 1.85644,1.85644 1.09874,3.90769 -1.44345,3.90769 -1.01157,0 -1.50837,-0.20339 -1.91508,-0.78405 z m 33.21345,-4.37649 c -0.65735,-0.65735 -0.17519,-1.45259 1.11512,-1.83918 1.78594,-0.53508 2.19052,-0.51726 3.5399,0.1559 0.70925,0.35381 1.09014,0.78174 1.02052,1.14653 -0.0894,0.46825 -0.63059,0.60189 -2.76895,0.68374 -1.46183,0.0559 -2.7698,-0.0102 -2.90659,-0.14699 z"
         id="path15547"
         inkscape:connector-curvature="0" />
      <path
         style="fill:#f3de6e;stroke-width:0.35277778"
         d="m 160.46776,197.87946 c -0.80059,-0.88465 -0.74799,-2.41719 0.0985,-2.87023 1.68404,-0.90127 3.42072,0.0818 3.02801,1.714 -0.41531,1.72614 -2.06025,2.33446 -3.12653,1.15623 z m 25.67734,-9.04503 c -0.67008,-0.50682 -0.66837,-0.51819 0.0801,-0.52916 1.06424,-0.0156 1.91474,0.35423 1.6817,0.7313 -0.28752,0.4652 -0.98537,0.38514 -1.76181,-0.20214 z m -23.17438,-1.1268 c 0.24254,-0.0979 0.63941,-0.0979 0.88195,0 0.24253,0.0979 0.0441,0.17794 -0.44097,0.17794 -0.48507,0 -0.68351,-0.0801 -0.44098,-0.17794 z m 2.20487,-1.15665 c 0,-0.18258 0.15875,-0.43007 0.35277,-0.54999 0.19403,-0.11992 0.35278,0.0295 0.35278,0.33196 0,0.30249 -0.15875,0.54998 -0.35278,0.54998 -0.19402,0 -0.35277,-0.14938 -0.35277,-0.33195 z m 18.66938,-0.42562 c -0.69095,-1.29104 0.1118,-3.14381 1.85061,-4.27127 1.58646,-1.02868 2.26318,-1.16353 3.11612,-0.62096 0.43616,0.27745 0.45166,0.46167 0.0882,1.04814 -0.24253,0.39135 -0.44097,0.94645 -0.44097,1.23357 0,0.28711 -0.58878,1.16239 -1.3084,1.94506 -1.4714,1.60031 -2.6755,1.84271 -3.30555,0.66546 z m -32.27698,-2.74186 c 0.54801,-0.60555 0.56962,-0.7339 0.12352,-0.7339 -0.29735,0 -0.72654,-0.22399 -0.95375,-0.49776 -0.71269,-0.85873 0.29193,-1.06902 1.16932,-0.24475 0.4347,0.40838 0.99021,0.74251 1.23447,0.74251 0.24426,0 0.39148,0.27781 0.32715,0.61736 -0.079,0.41715 -0.51388,0.65516 -1.34091,0.7339 -1.21915,0.11608 -1.22136,0.11365 -0.5598,-0.61736 z m -1.25407,-5.56245 c -0.42621,-0.52396 -0.40681,-0.56619 0.16205,-0.35278 0.35541,0.13334 0.88072,0.24244 1.16734,0.24244 0.28663,0 0.42302,0.15875 0.30311,0.35278 -0.33102,0.5356 -1.09149,0.42266 -1.6325,-0.24244 z m 28.87058,-9.50235 c -0.42108,-0.42108 -0.28,-0.83854 0.28337,-0.83854 0.29368,0 0.82599,-0.18238 1.18291,-0.40528 0.49899,-0.31163 0.90564,-0.29167 1.75971,0.0864 0.61091,0.27042 1.05825,0.65123 0.99408,0.84625 -0.1352,0.41093 -3.84666,0.6846 -4.22007,0.31119 z"
         id="path15545"
         inkscape:connector-curvature="0" />
    </g>
  </g>
</svg>
